<svg id="Icon-Identification" xmlns="http://www.w3.org/2000/svg" width="20" height="20" viewBox="0 0 20 20">
  <rect id="Area" width="20" height="20" fill="#969696" opacity="0"/>
  <g id="Icon" transform="translate(1.29 2.499)">
    <path id="b0197123-d433-42e3-98a0-762a9d5ad637" d="M12,2.4A1.611,1.611,0,0,0,10.4,4H5.6V22.4H20V4H15.2a1.611,1.611,0,0,0-1.6-1.6ZM12,4h1.6V5.6H12ZM7.2,5.6h3.2V7.2h4.8V5.6h3.2V20.8H7.2Zm5.6,3.2a3.183,3.183,0,0,0-2.225,5.475A4.028,4.028,0,0,0,8.8,17.6h1.6a2.4,2.4,0,1,1,4.8,0h1.6a4.028,4.028,0,0,0-1.775-3.325A3.183,3.183,0,0,0,12.8,8.8Zm0,1.6A1.6,1.6,0,1,1,11.2,12,1.587,1.587,0,0,1,12.8,10.4Z" transform="translate(-4.09 -4.899)" fill="#969696"/>
  </g>
</svg>
