<svg id="Icon-Space" xmlns="http://www.w3.org/2000/svg" width="20" height="20" viewBox="0 0 20 20">
  <rect id="Area" width="20" height="20" fill="#969696" opacity="0"/>
  <g id="Icon" transform="translate(1.29 2.499)">
    <path id="_3cf32190-db3b-4dd8-badb-ec4abbb3d514" data-name="3cf32190-db3b-4dd8-badb-ec4abbb3d514" d="M11.429,5a6.331,6.331,0,0,0-4.71,2.188,2.2,2.2,0,0,0-.29-.045A2.867,2.867,0,0,0,3.571,10a4.214,4.214,0,0,0-2.142,3.571,4.3,4.3,0,0,0,4.285,4.286H17.143a4.256,4.256,0,0,0,.29-8.5A6.379,6.379,0,0,0,11.429,5Zm0,1.429A5,5,0,0,1,16.272,10.2l.134.558.6-.022c.151-.009.184-.023.134-.023a2.858,2.858,0,0,1,0,5.715H5.714A2.859,2.859,0,0,1,4.6,10.938l.491-.2L5.022,10.2C5.008,10.084,5,10.017,5,10A1.418,1.418,0,0,1,6.429,8.571a1.363,1.363,0,0,1,.334.045l.447.112.268-.357A5,5,0,0,1,11.429,6.429Z" transform="translate(-2.719 -3.928)" fill="#969696"/>
  </g>
</svg>
