<svg xmlns="http://www.w3.org/2000/svg" width="20" height="20" viewBox="0 0 20 20">
  <g id="Icon-Energy" transform="translate(0 0)">
    <rect id="Area" width="20" height="20" fill="#969696" opacity="0"/>
    <g id="Icon" transform="translate(1.29 2.499)">
      <path id="_50c59adb-3e4c-43ca-bc48-828edea9b7e7" data-name="50c59adb-3e4c-43ca-bc48-828edea9b7e7" d="M12.5,3.333V5.495L10.99,4.01,9.844,5.156l1.484,1.511H9.167V8.333h2.161L9.844,9.844,10.99,10.99,12.5,9.505v2.162h1.667V9.505l1.51,1.485,1.146-1.146L15.338,8.333H17.5V6.667H15.338l1.485-1.511L15.677,4.01l-1.51,1.485V3.333Zm.833,2.5A1.667,1.667,0,1,1,11.667,7.5,1.67,1.67,0,0,1,13.333,5.833Zm-8.151,7.5-1.849,7.4v2.6h20v-2.6l-1.849-7.4ZM6.484,15h13.7l1.485,5.938v.729H5v-.729Zm1.016.833-.338,1.511H8.906l.261-1.511Zm3.333,0-.156,1.511h1.745l.078-1.511Zm3.334,0,.078,1.511H15.99l-.157-1.511Zm3.333,0,.261,1.511H19.5l-.338-1.511ZM6.823,19.011,6.51,20.833h1.9l.26-1.822Zm3.75,0-.156,1.822h1.927l.078-1.822Zm3.672,0,.078,1.822H16.25l-.156-1.822Zm3.75,0,.26,1.822h1.9l-.312-1.822Z" transform="translate(-4.623 -5.832)" fill="#969696"/>
    </g>
  </g>
</svg>
