<svg id="Icon-Shield" xmlns="http://www.w3.org/2000/svg" width="20" height="20" viewBox="0 0 20 20">
  <rect id="Area" width="20" height="20" fill="#969696" opacity="0"/>
  <g id="Icon" transform="translate(1.29 2.499)">
    <path id="cac3a272-ad86-4616-821b-c55f432587bd" d="M13.3,3.325a8.33,8.33,0,0,0-4.26,1.35A7.472,7.472,0,0,1,4.987,5.818H4.156v.831c0,6.416,2.169,10.591,4.363,13.117a13.321,13.321,0,0,0,4.468,3.455l.312.1.311-.1a13.1,13.1,0,0,0,4.468-3.429c2.2-2.519,4.363-6.7,4.363-13.143V5.818H21.61a7.5,7.5,0,0,1-4.052-1.143A8.327,8.327,0,0,0,13.3,3.325Zm0,1.662A6.507,6.507,0,0,1,16.753,6.13a10.4,10.4,0,0,0,3.974,1.221c-.159,5.623-2.019,9.2-3.9,11.35A10.126,10.126,0,0,1,13.3,21.48a10.271,10.271,0,0,1-3.533-2.805C7.89,16.516,6.029,12.948,5.87,7.351A10.361,10.361,0,0,0,9.844,6.13,6.51,6.51,0,0,1,13.3,4.987Z" transform="translate(-4.589 -5.824)" fill="#969696"/>
  </g>
</svg>
