<svg width="240" height="166" viewBox="0 0 240 166" fill="none" xmlns="http://www.w3.org/2000/svg">
<path fill-rule="evenodd" clip-rule="evenodd" d="M151.848 146.839H157.111V154.734C157.111 156.188 155.932 157.366 154.479 157.366C153.026 157.366 151.848 156.188 151.848 154.734V146.839ZM157.111 141.576V146.839H163.69C170.23 146.839 175.532 141.538 175.532 134.997C175.532 128.457 170.23 123.155 163.69 123.155H154.474C153.02 123.155 151.842 124.333 151.842 125.787C151.842 125.843 151.844 125.898 151.847 125.953L151.848 141.576H157.111ZM157.111 141.576V128.418H163.69C167.323 128.418 170.269 131.364 170.269 134.997C170.269 138.631 167.323 141.576 163.69 141.576H157.111ZM197.895 136.31C197.895 134.857 196.716 133.679 195.263 133.679C193.81 133.679 192.632 134.857 192.632 136.31V146.839C192.632 152.653 197.344 157.366 203.158 157.366C208.971 157.366 213.684 152.653 213.684 146.839V136.31C213.684 134.857 212.506 133.679 211.053 133.679C209.599 133.679 208.421 134.857 208.421 136.31V146.839C208.421 149.746 206.065 152.103 203.158 152.103C200.251 152.103 197.895 149.746 197.895 146.839V136.31ZM240 150.129C240 146.132 236.76 142.892 232.763 142.892H226.184C225.094 142.892 224.21 142.008 224.21 140.918C224.21 139.828 225.094 138.945 226.184 138.945H236.053C237.506 138.945 238.684 137.767 238.684 136.313C238.684 134.86 237.506 133.682 236.053 133.682H226.184C222.187 133.682 218.947 136.922 218.947 140.918C218.947 144.915 222.187 148.155 226.184 148.155H232.763C233.853 148.155 234.737 149.039 234.737 150.129C234.737 151.219 233.853 152.103 232.763 152.103H222.895C221.441 152.103 220.263 153.281 220.263 154.734C220.263 156.188 221.441 157.366 222.895 157.366H232.763C236.76 157.366 240 154.126 240 150.129ZM183.421 123.155C184.874 123.155 186.053 124.333 186.053 125.787V154.734C186.053 156.188 184.874 157.366 183.421 157.366C181.968 157.366 180.789 156.188 180.789 154.734V125.787C180.789 124.333 181.968 123.155 183.421 123.155Z" fill="#00B8D4"/>
<path fill-rule="evenodd" clip-rule="evenodd" d="M31.7837 150.845L21.2073 140.269L17.1053 144.363C19.4555 146.713 22.9838 150.239 27.69 154.939C28.8204 156.069 30.6533 156.069 31.7837 154.939C32.9142 153.809 32.9142 151.976 31.7837 150.845ZM4.94163 154.939C9.64509 150.233 13.1733 146.704 15.5263 144.351L11.4281 140.261C9.07693 142.612 5.55018 146.14 0.847849 150.845C-0.282616 151.976 -0.282616 153.809 0.847849 154.939C1.97831 156.069 3.81116 156.069 4.94163 154.939ZM0.847849 128.097C5.55125 132.802 9.0788 136.33 11.4305 138.682L15.5263 134.592C13.1732 132.239 9.64498 128.709 4.94163 124.003C3.81116 122.873 1.97831 122.873 0.847849 124.003C-0.282616 125.134 -0.282616 126.966 0.847849 128.097ZM27.69 124.003C22.9847 128.706 19.4565 132.232 17.1053 134.584L21.1833 138.682C23.539 136.326 27.0724 132.798 31.7837 128.097C32.9142 126.966 32.9142 125.134 31.7837 124.003C30.6533 122.873 28.8204 122.873 27.69 124.003ZM38.6842 145.524V162.629C38.6842 164.082 39.8624 165.261 41.3158 165.261C42.7692 165.261 43.9474 164.082 43.9474 162.629V155.372C45.8291 156.631 48.0919 157.366 50.5263 157.366C57.0665 157.366 62.3684 152.064 62.3684 145.524C62.3684 138.983 57.0665 133.682 50.5263 133.682C48.063 133.682 45.7753 134.434 43.8804 135.721C43.6118 134.553 42.5655 133.682 41.3158 133.682C39.8624 133.682 38.6842 134.86 38.6842 136.313V145.524ZM43.9474 145.524C43.9474 141.89 46.8929 138.945 50.5263 138.945C54.1598 138.945 57.1053 141.89 57.1053 145.524C57.1053 149.157 54.1598 152.103 50.5263 152.103C46.8929 152.103 43.9474 149.157 43.9474 145.524ZM72.8947 145.524C72.8947 141.89 75.8402 138.945 79.4737 138.945C83.1071 138.945 86.0526 141.89 86.0526 145.524C86.0526 149.157 83.1071 152.103 79.4737 152.103C75.8402 152.103 72.8947 149.157 72.8947 145.524ZM79.4737 133.682C72.9335 133.682 67.6316 138.983 67.6316 145.524C67.6316 152.064 72.9335 157.366 79.4737 157.366C81.937 157.366 84.2247 156.614 86.1196 155.327C86.3882 156.495 87.4345 157.366 88.6842 157.366C90.1376 157.366 91.3158 156.188 91.3158 154.734V145.524V136.313C91.3158 134.86 90.1376 133.682 88.6842 133.682C87.4345 133.682 86.3882 134.553 86.1196 135.721C84.2247 134.434 81.937 133.682 79.4737 133.682ZM108.421 133.682C101.881 133.682 96.5789 138.983 96.5789 145.524C96.5789 152.064 101.881 157.366 108.421 157.366C111.689 157.366 114.652 156.038 116.792 153.9C117.82 152.872 117.821 151.206 116.793 150.178C115.766 149.15 114.1 149.15 113.072 150.177C111.878 151.37 110.238 152.103 108.421 152.103C104.788 152.103 101.842 149.157 101.842 145.524C101.842 141.89 104.788 138.945 108.421 138.945C110.239 138.945 111.881 139.679 113.074 140.873C114.102 141.901 115.768 141.902 116.796 140.874C117.824 139.847 117.825 138.181 116.797 137.153C114.657 135.011 111.692 133.682 108.421 133.682ZM122.895 145.524C122.895 138.983 128.197 133.682 134.737 133.682C138.007 133.682 140.973 135.011 143.113 137.153C143.606 137.646 143.883 138.316 143.883 139.014C143.883 139.712 143.605 140.381 143.111 140.875L132.327 151.647C133.074 151.941 133.886 152.103 134.737 152.103C136.554 152.103 138.194 151.37 139.388 150.177C140.416 149.15 142.082 149.15 143.109 150.178C144.137 151.206 144.136 152.872 143.108 153.9C140.968 156.038 138.005 157.366 134.737 157.366C128.197 157.366 122.895 152.064 122.895 145.524ZM128.609 147.923L137.143 139.398C136.398 139.105 135.587 138.945 134.737 138.945C131.103 138.945 128.158 141.89 128.158 145.524C128.158 146.37 128.318 147.179 128.609 147.923Z" fill="#232429"/>
<path d="M119.027 20.6485L53.2392 52.2266C50.2536 53.6597 50.2536 57.9106 53.2392 59.3437L119.027 90.9218C120.107 91.4401 121.363 91.4401 122.443 90.9218L188.231 59.3437C191.216 57.9106 191.216 53.6597 188.231 52.2266L122.443 20.6485C121.363 20.1302 120.107 20.1302 119.027 20.6485ZM120.735 28.5852L177.401 55.785L120.735 82.9848L64.0689 55.785L120.735 28.5852Z" fill="#232429"/>
<path d="M119.027 54.3442L69.6862 30.6606C66.7006 29.2275 66.7006 24.9765 69.6862 23.5435C91.3225 13.158 107.55 5.36894 118.368 0.176217C119.599 -0.386441 120.735 0.48404 120.735 1.57623V6.83897C120.735 7.14625 120.634 7.87677 119.783 8.25383C106.694 14.5366 93.6047 20.8193 80.5156 27.102L120.735 46.4073L160.954 27.102C155.566 24.5166 150.177 21.9311 144.789 19.3457C144.291 19.1066 143.892 18.5342 143.892 17.8983V12.6374C143.892 11.3831 145.159 10.7595 146.138 11.235C150.216 13.1923 158.765 17.2951 171.784 23.5435C174.77 24.9765 174.77 29.2275 171.784 30.6606L122.443 54.3442C121.903 54.6033 121.319 54.7329 120.735 54.7329C120.151 54.7329 119.567 54.6033 119.027 54.3442Z" fill="url(#paint0_linear_6545_239152)"/>
<path d="M132.314 14.2077C135.22 14.2077 137.577 11.8513 137.577 8.94466C137.577 6.03797 135.22 3.68164 132.314 3.68164C129.407 3.68164 127.051 6.03797 127.051 8.94466C127.051 11.8513 129.407 14.2077 132.314 14.2077Z" fill="#59BE30"/>
<defs>
<linearGradient id="paint0_linear_6545_239152" x1="120.735" y1="21.2898" x2="141.732" y2="27.6437" gradientUnits="userSpaceOnUse">
<stop stop-color="#00B8D4"/>
<stop offset="0.555424" stop-color="#00B8D4"/>
<stop offset="1" stop-color="#59BE30"/>
</linearGradient>
</defs>
</svg>
