<svg xmlns="http://www.w3.org/2000/svg" xmlns:xlink="http://www.w3.org/1999/xlink" width="47" height="47" viewBox="0 0 47 47">
  <defs>
    <clipPath id="clip-path">
      <rect id="Rectangle_23004" data-name="Rectangle 23004" width="9.538" height="10.852" transform="translate(146.583 17.891)" fill="none"/>
    </clipPath>
    <clipPath id="clip-path-2">
      <rect id="Rectangle_23005" data-name="Rectangle 23005" width="47" height="47" transform="translate(127)" fill="none"/>
    </clipPath>
  </defs>
  <g id="youtube" transform="translate(14299 3474)">
    <g id="Group_6694" data-name="Group 6694" transform="translate(-14426 -3474)" opacity="0">
      <g id="Group_6693" data-name="Group 6693">
        <g id="Group_6692" data-name="Group 6692" clip-path="url(#clip-path)">
          <path id="Path_1434" data-name="Path 1434" d="M146.583,28.743l9.538-5.427-9.538-5.425Z" fill="#fff"/>
        </g>
      </g>
    </g>
    <g id="Group_6697" data-name="Group 6697" transform="translate(-14426 -3474)" opacity="0">
      <g id="Group_6696" data-name="Group 6696">
        <g id="Group_6695" data-name="Group 6695" clip-path="url(#clip-path-2)">
          <path id="Path_1435" data-name="Path 1435" d="M127,47h47V0H127Zm40.8-14.843a4.582,4.582,0,0,1-3.225,3.246c-2.846.768-14.257.768-14.257.768s-11.411,0-14.257-.768a4.588,4.588,0,0,1-3.227-3.246c-.762-2.864-.762-8.841-.762-8.841s0-5.976.762-8.84a4.591,4.591,0,0,1,3.227-3.248c2.845-.768,14.257-.768,14.257-.768s11.41,0,14.257.768a4.585,4.585,0,0,1,3.225,3.248c.765,2.864.763,8.84.763,8.84s0,5.977-.763,8.841" fill="#fff"/>
        </g>
      </g>
    </g>
    <path id="Path_1436" data-name="Path 1436" d="M164.571,11.228c-2.847-.768-14.257-.768-14.257-.768s-11.412,0-14.257.768a4.591,4.591,0,0,0-3.227,3.248c-.762,2.864-.762,8.84-.762,8.84s0,5.977.762,8.841a4.588,4.588,0,0,0,3.227,3.246c2.846.768,14.257.768,14.257.768s11.411,0,14.257-.768a4.582,4.582,0,0,0,3.225-3.246c.763-2.864.763-8.841.763-8.841s0-5.976-.763-8.84a4.585,4.585,0,0,0-3.225-3.248M146.583,28.743V17.891l9.538,5.425Z" transform="translate(-14426 -3474)" fill="#959595"/>
  </g>
</svg>
